<svg id="Capa_1" data-name="Capa 1" xmlns="http://www.w3.org/2000/svg" viewBox="0 0 1078.78 389.01"><defs><style>.cls-1{fill:#fe1f1f;}.cls-2{fill:#000831;}</style></defs><title>Ahurus azul</title><path class="cls-1" d="M622.5,371.67C650.21,291.49,725.09,234,813.14,234s162.94,57.47,190.64,137.65h53.8C1028.12,262.11,929.85,181.6,813.14,181.6s-215,80.51-244.44,190.07Z" transform="translate(-138.08 -181.6)"/><path class="cls-2" d="M556,565.57h-48.8V464.92c0-2,0-4-.06-6-.79-20.28-14.21-33.72-33.59-33.66-19.73.06-33.92,14.07-34.06,34.34-.23,33.33-.07,66.67-.08,100v5.86H390.45V291.94h48.89V399.82c2.32-1.91,3.74-3.2,5.28-4.33,22.31-16.33,46.8-19.4,72.08-9.35,24.07,9.57,35.26,29.55,38.42,54.47A120.73,120.73,0,0,1,556,455.7q.1,52.29,0,104.59Z" transform="translate(-138.08 -181.6)"/><path class="cls-2" d="M369,565.68H316.23c-3.94-9.11-14.63-31.14-14.63-31.14s-96.58,0-97.45.19L191,565.63H138.08L245.35,292.18h16.73Zm-83.48-72.09-32-108.52L221.56,493.59Z" transform="translate(-138.08 -181.6)"/><path class="cls-2" d="M894,385.05h49c0,2.07-.14,72.32.06,105.65.15,23.77,20,38.88,43.07,33.08,13.58-3.42,23.41-14.71,24.11-29,.63-13,.37-26,.4-39,.05-21.72,0-68.71,0-70.78h48.91c.11,1.47.39,69,.27,101.37-.09,26.79-8.75,49.92-30.43,66.77C986.7,586.4,919.67,570.1,900.52,521.53a92.81,92.81,0,0,1-6.42-31.2C893.28,456.1,893.88,386.11,894,385.05Z" transform="translate(-138.08 -181.6)"/><path class="cls-2" d="M573.24,385h49c0,1.9-.1,73,.09,106.81.08,14.65,8.25,26.13,21.16,30.85,14,5.11,29.24,1.48,38.6-9.19,6.23-7.1,7.94-15.63,7.94-24.75,0-32.57,0-101.35,0-103.56h48.59c.16.94.92,72.37.19,107.06-.78,37.05-24.52,66.39-59.43,75.21-38.18,9.65-76.81-4.92-94.86-35.8a82.6,82.6,0,0,1-11.43-41.54C572.8,455.83,573.08,386.13,573.24,385Z" transform="translate(-138.08 -181.6)"/><path class="cls-2" d="M1189.69,437.89c-3.71-2.75-7-5.45-10.55-7.79-10.86-7.19-22.87-10.5-35.75-8.5a22.22,22.22,0,0,0-11.72,6.1c-4.09,4.18-2.54,11.3,2.79,14.72,5,3.19,10.47,5.62,15.85,8.16,13.53,6.39,27.39,12.13,40.63,19.07,38,19.92,31.07,71.77-.32,89.82-35.73,20.54-92.14,10.53-117.18-22.25-.45-.6-.82-1.25-1.5-2.31l24.4-29.57c2.82,2.51,5.34,4.88,8,7.09,13.21,11.05,28,18.23,45.64,17a34.36,34.36,0,0,0,14.24-4.27c8.28-4.79,8.19-16.15-.23-20.61-9.56-5.06-19.88-8.68-29.53-13.6-11.52-5.89-23.63-11.24-33.8-19-24.92-19.06-23.62-58.87,1.69-77.51,16.28-12,35.05-14.54,54.53-13.34,20.33,1.26,38.46,8.16,53.3,22.59,1.29,1.26,2.5,2.62,4,4.23Z" transform="translate(-138.08 -181.6)"/><path class="cls-2" d="M758,385h44.7v21.46c9-10.42,18.55-17.29,30.15-20.84a62,62,0,0,1,35.38-.87V428.9c-7.72,0-15.28-.87-22.58.16-24.71,3.5-38.23,18.85-38.56,43.91-.39,28.88-.15,90.3-.15,92.52H758Z" transform="translate(-138.08 -181.6)"/><path class="cls-1" d="M750.52,367.65a77.33,77.33,0,0,1,124.44,0h59.83a128.91,128.91,0,0,0-240.88,0Z" transform="translate(-138.08 -181.6)"/></svg>